<svg width="24" height="11" viewBox="0 0 24 11" fill="none" xmlns="http://www.w3.org/2000/svg">
<path d="M0.159079 11V9.25313L1.65443 8.95382V2.25591L0 1.95643V0.199626H4.5285L4.65578 1.62703C5.02343 1.10798 5.483 0.70871 6.03447 0.429206C6.59302 0.143077 7.23643 0 7.96467 0C8.69998 0 9.32923 0.153062 9.85242 0.45916C10.3827 0.765282 10.7786 1.22775 11.0402 1.84665C11.3938 1.26769 11.8533 0.815183 12.4189 0.489115C12.9846 0.163023 13.6492 0 14.4128 0C15.5441 0 16.435 0.362672 17.0853 1.08801C17.743 1.81336 18.0715 2.91803 18.0715 4.402V8.95382L19.567 9.25313V11H13.6386V9.25313L14.9749 8.95382V4.39202C14.9749 3.59347 14.8334 3.04113 14.5506 2.73504C14.2749 2.42227 13.8719 2.26587 13.3416 2.26587C12.8608 2.26587 12.4543 2.39565 12.122 2.65518C11.7897 2.90804 11.5493 3.2441 11.4008 3.66334V8.95382L12.6523 9.25313V11H7.0632V9.25313L8.31465 8.95382V4.39202C8.31465 3.61344 8.17325 3.06442 7.89044 2.745C7.61469 2.42558 7.2046 2.26587 6.6602 2.26587C6.22185 2.26587 5.84359 2.34906 5.52543 2.51542C5.20725 2.6818 4.94565 2.92136 4.74062 3.23411V8.95382L6.0769 9.25313V11H0.159079ZM20.914 11V8.44464H24V11H20.914ZM20.914 2.76497V0.20961H24V2.76497H20.914Z" fill="white"/>
</svg>
